<svg width="50" height="51" viewBox="0 0 50 51" fill="none" xmlns="http://www.w3.org/2000/svg">
<g clip-path="url(#clip0_424_333)">
<path d="M50 25.8181C50 39.6251 38.807 50.8181 25 50.8181C11.193 50.8181 0 39.6251 0 25.8181C0 25.824 25 0.820947 25 0.818115C38.807 0.818115 50 12.0111 50 25.8181Z" fill="#0052B4"/>
<path d="M25 0.818115C24.9986 0.818115 24.9972 0.818213 24.9958 0.818213L25 0.818115Z" fill="#F0F0F0"/>
<path d="M24.9331 25.8181H25C25 25.7955 25 25.7738 25 25.7512C24.9777 25.7736 24.9555 25.7958 24.9331 25.8181Z" fill="#F0F0F0"/>
<path d="M25 13.8617C25 9.46277 25 6.58025 25 0.818237H24.9958C11.1906 0.820483 0 12.0124 0 25.8181H13.0435V18.4732L20.3884 25.8181H24.9332C24.9556 25.7959 24.9778 25.7736 25.0001 25.7512C25.0001 24.067 25.0001 22.5641 25.0001 21.2067L17.6551 13.8617H25Z" fill="#F0F0F0"/>
<path d="M12.648 4.07898C8.73791 6.30544 5.48733 9.55603 3.26086 13.4661V25.8181H9.78264V10.6009V10.6008H25C25 8.54382 25 6.58425 25 4.07898H12.648Z" fill="#D80027"/>
<path d="M25 22.7438L16.1179 13.8617H13.0436C13.0436 13.8616 13.0436 13.8617 13.0436 13.8617L24.9999 25.8181H25C25 25.8181 25 23.6985 25 22.7438Z" fill="#D80027"/>
<path d="M15.0776 30.1659L16.4497 33.0348L19.548 32.3187L18.1605 35.1802L20.6521 37.1561L17.5499 37.8553L17.5586 41.0354L15.0776 39.0459L12.5968 41.0354L12.6055 37.8553L9.50311 37.1561L11.9948 35.1802L10.6071 32.3187L13.7057 33.0348L15.0776 30.1659Z" fill="#F0F0F0"/>
<path d="M37.4301 35.6007L38.1161 37.0352L39.6653 36.6771L38.9715 38.1078L40.2174 39.0958L38.6662 39.4454L38.6705 41.0355L37.4301 40.0406L36.1897 41.0355L36.194 39.4454L34.6429 39.0958L35.8887 38.1078L35.1949 36.6771L36.7441 37.0352L37.4301 35.6007Z" fill="#F0F0F0"/>
<path d="M31.0481 20.3833L31.734 21.8179L33.2833 21.4597L32.5895 22.8904L33.8353 23.8784L32.2842 24.228L32.2884 25.8181L31.0481 24.8232L29.8077 25.8181L29.8119 24.228L28.2608 23.8784L29.5066 22.8904L28.8129 21.4597L30.3621 21.8179L31.0481 20.3833Z" fill="#F0F0F0"/>
<path d="M37.4301 11.6876L38.1161 13.1222L39.6653 12.7641L38.9716 14.1948L40.2173 15.1827L38.6662 15.5324L38.6705 17.1225L37.4301 16.1277L36.1897 17.1225L36.194 15.5324L34.6429 15.1827L35.8886 14.1948L35.1949 12.7641L36.7441 13.1222L37.4301 11.6876Z" fill="#F0F0F0"/>
<path d="M43.0047 18.2094L43.6906 19.6439L45.2398 19.2857L44.5461 20.7165L45.7919 21.7045L44.2407 22.0542L44.245 23.6441L43.0047 22.6494L41.7642 23.6441L41.7684 22.0542L40.2173 21.7045L41.4631 20.7165L40.7694 19.2857L42.3185 19.6439L43.0047 18.2094Z" fill="#F0F0F0"/>
<path d="M39.0186 25.8181L39.5581 27.4789H41.3044L39.8916 28.5053L40.4314 30.166L39.0186 29.1396L37.6059 30.166L38.1454 28.5053L36.7327 27.4789H38.4789L39.0186 25.8181Z" fill="#F0F0F0"/>
</g>
<defs>
<clipPath id="clip0_424_333">
<rect width="50" height="50" fill="white" transform="translate(0 0.818115)"/>
</clipPath>
</defs>
</svg>
