<svg width="50" height="51" viewBox="0 0 50 51" fill="none" xmlns="http://www.w3.org/2000/svg">
<g clip-path="url(#clip0_175_249)">
<path d="M25 50.9092C38.8071 50.9092 50 39.7163 50 25.9092C50 12.1021 38.8071 0.90918 25 0.90918C11.1929 0.90918 0 12.1021 0 25.9092C0 39.7163 11.1929 50.9092 25 50.9092Z" fill="#F0F0F0"/>
<path d="M25 19.387H49.1388C48.5119 17.0614 47.5592 14.8699 46.3307 12.8652H25V19.387Z" fill="#338AF3"/>
<path d="M9.4374 45.4749H40.5617C42.8433 43.6577 44.7999 41.4505 46.3302 38.9531H3.66895C5.19932 41.4504 7.15596 43.6577 9.4374 45.4749V45.4749Z" fill="#338AF3"/>
<path d="M25 0.90918V6.34395H40.5622C36.2917 2.94277 30.8837 0.90918 25 0.90918V0.90918Z" fill="#338AF3"/>
<path d="M25 19.387H49.1388C48.5119 17.0614 47.5592 14.8699 46.3307 12.8652H25V19.387Z" fill="#338AF3"/>
<path d="M0 25.9092C0 28.1657 0.300781 30.3515 0.86123 32.431H49.1389C49.6992 30.3515 50 28.1657 50 25.9092H0Z" fill="#338AF3"/>
<path d="M21.7393 15.5406L18.6859 16.9769L20.3118 19.9339L16.9964 19.2997L16.5763 22.6488L14.2671 20.1855L11.9577 22.6488L11.5377 19.2997L8.22227 19.9337L9.84805 16.9768L6.79492 15.5406L9.84814 14.1046L8.22227 11.1476L11.5376 11.7817L11.9578 8.43262L14.2671 10.8959L16.5764 8.43262L16.9964 11.7817L20.3119 11.1476L18.686 14.1047L21.7393 15.5406Z" fill="#FFDA44"/>
</g>
<defs>
<clipPath id="clip0_175_249">
<rect width="50" height="50" fill="white" transform="translate(0 0.90918)"/>
</clipPath>
</defs>
</svg>
