<svg width="50" height="51" viewBox="0 0 50 51" fill="none" xmlns="http://www.w3.org/2000/svg">
<g clip-path="url(#clip0_175_254)">
<path d="M0 25.8187C0 28.8768 0.550098 31.8061 1.55498 34.5144L25 35.6014L48.445 34.5145C49.45 31.8061 50 28.8768 50 25.8187C50 22.7607 49.45 19.8314 48.445 17.1231L25 16.0361L1.55498 17.123C0.550098 19.8314 0 22.7607 0 25.8187H0Z" fill="#FFDA44"/>
<path d="M24.9997 0.818359C14.2506 0.818359 5.08701 7.60273 1.55469 17.1228H48.4448C44.9124 7.60273 35.7488 0.818359 24.9997 0.818359V0.818359Z" fill="#D80027"/>
<path d="M48.4447 34.5137H1.55469C5.08701 44.0336 14.2506 50.8181 24.9997 50.8181C35.7488 50.8181 44.9124 44.0336 48.4447 34.5137Z" fill="#496E2D"/>
<path d="M24.9994 17.123L27.1576 23.7656H34.1428L28.4921 27.8714L30.6503 34.5143L24.9994 30.4088L19.3485 34.5143L21.5071 27.8714L15.8564 23.7656H22.8412L24.9994 17.123Z" fill="black"/>
</g>
<defs>
<clipPath id="clip0_175_254">
<rect width="50" height="50" fill="white" transform="translate(0 0.818359)"/>
</clipPath>
</defs>
</svg>
