<svg width="50" height="51" viewBox="0 0 50 51" fill="none" xmlns="http://www.w3.org/2000/svg">
<g clip-path="url(#clip0_175_252)">
<path d="M0 25.8181C0 36.5671 6.78438 45.7307 16.3042 49.263L18.4782 25.818L16.3042 2.37305C6.78438 5.90547 0 15.0689 0 25.8181Z" fill="#6DA544"/>
<path d="M50.0005 25.8184C50.0005 12.0113 38.8075 0.818359 25.0005 0.818359C21.9425 0.818359 19.0131 1.36846 16.3047 2.37334V49.2634C19.0131 50.2684 21.9425 50.8184 25.0005 50.8184C38.8075 50.8184 50.0005 39.6254 50.0005 25.8184Z" fill="#D80027"/>
<path d="M16.304 34.5143C21.1065 34.5143 24.9996 30.6211 24.9996 25.8187C24.9996 21.0162 21.1065 17.123 16.304 17.123C11.5016 17.123 7.6084 21.0162 7.6084 25.8187C7.6084 30.6211 11.5016 34.5143 16.304 34.5143Z" fill="#FFDA44"/>
<path d="M11.4131 21.4707V26.9055C11.4131 29.6068 13.6029 31.7968 16.3044 31.7968C19.0059 31.7968 21.1957 29.6069 21.1957 26.9055V21.4707H11.4131Z" fill="#D80027"/>
<path d="M16.3043 28.5357C15.4053 28.5357 14.6738 27.8043 14.6738 26.9053V24.7314H17.9347V26.9054C17.9347 27.8043 17.2032 28.5357 16.3043 28.5357Z" fill="#F0F0F0"/>
</g>
<defs>
<clipPath id="clip0_175_252">
<rect width="50" height="50" fill="white" transform="translate(0 0.818359)"/>
</clipPath>
</defs>
</svg>
