<svg width="50" height="51" viewBox="0 0 50 51" fill="none" xmlns="http://www.w3.org/2000/svg">
<g clip-path="url(#clip0_175_249)">
<path d="M35.87 3.38984C32.5833 1.80059 28.896 0.90918 25.0005 0.90918C21.105 0.90918 17.4177 1.80059 14.131 3.38984L11.957 25.9092L14.131 48.4285C17.4177 50.0178 21.105 50.9092 25.0005 50.9092C28.896 50.9092 32.5833 50.0178 35.87 48.4285L38.0439 25.9092L35.87 3.38984Z" fill="#D80027"/>
<path d="M24.9994 17.2139L27.1576 23.8563H34.1428L28.492 27.9622L30.6503 34.6051L24.9994 30.4995L19.3485 34.6051L21.5072 27.9622L15.8564 23.8563H22.8411L24.9994 17.2139Z" fill="#FFDA44"/>
<path d="M14.1305 3.39062C5.76816 7.43418 0 15.9976 0 25.9091C0 35.8206 5.76816 44.384 14.1305 48.4275V3.39062Z" fill="#496E2D"/>
<path d="M35.8691 3.39062V48.4275C44.2314 44.384 49.9996 35.8205 49.9996 25.9091C49.9996 15.9977 44.2314 7.43418 35.8691 3.39062Z" fill="#FFDA44"/>
</g>
<defs>
<clipPath id="clip0_175_249">
<rect width="50" height="50" fill="white" transform="translate(0 0.90918)"/>
</clipPath>
</defs>
</svg>
