<svg width="50" height="51" viewBox="0 0 50 51" fill="none" xmlns="http://www.w3.org/2000/svg">
<g clip-path="url(#clip0_424_303)">
<path d="M25 50.8181C38.8071 50.8181 50 39.6252 50 25.8181C50 12.011 38.8071 0.818115 25 0.818115C11.1929 0.818115 0 12.011 0 25.8181C0 39.6252 11.1929 50.8181 25 50.8181Z" fill="#F0F0F0"/>
<path d="M50 25.8181C50 15.0689 43.2156 5.90537 33.6956 2.37305V49.2632C43.2156 45.7308 50 36.5672 50 25.8181V25.8181Z" fill="#D80027"/>
<path d="M0 25.8181C0 36.5672 6.78447 45.7308 16.3044 49.2631V2.37305C6.78447 5.90537 0 15.0689 0 25.8181Z" fill="#0052B4"/>
</g>
<defs>
<clipPath id="clip0_424_303">
<rect width="50" height="50" fill="white" transform="translate(0 0.818115)"/>
</clipPath>
</defs>
</svg>
