<svg width="50" height="51" viewBox="0 0 50 51" fill="none" xmlns="http://www.w3.org/2000/svg">
<g clip-path="url(#clip0_175_247)">
<path d="M25 50.9092C38.8071 50.9092 50 39.7163 50 25.9092C50 12.1021 38.8071 0.90918 25 0.90918C11.1929 0.90918 0 12.1021 0 25.9092C0 39.7163 11.1929 50.9092 25 50.9092Z" fill="#F0F0F0"/>
<path d="M33.6959 25.9095C33.6959 28.0834 29.8027 33.5182 25.0003 33.5182C20.1979 33.5182 16.3047 28.0834 16.3047 25.9095C16.3047 21.1069 20.1979 17.2139 25.0003 17.2139C29.8027 17.2139 33.6959 21.1069 33.6959 25.9095Z" fill="#D80027"/>
<path d="M33.6959 25.9092C33.6959 30.7117 29.8027 34.6048 25.0003 34.6048C20.1979 34.6048 16.3047 30.7117 16.3047 25.9092" fill="#0052B4"/>
<path d="M34.2158 33.5957L36.5212 31.2903L38.0582 32.8273L35.7528 35.1327L34.2158 33.5957Z" fill="black"/>
<path d="M30.373 37.4385L32.6785 35.1331L34.2154 36.67L31.91 38.9754L30.373 37.4385Z" fill="black"/>
<path d="M38.8271 38.2061L41.1326 35.9006L42.6695 37.4376L40.3641 39.743L38.8271 38.2061Z" fill="black"/>
<path d="M34.9844 42.0488L37.2898 39.7434L38.8268 41.2804L36.5213 43.5858L34.9844 42.0488Z" fill="black"/>
<path d="M36.5215 35.9014L38.8269 33.596L40.3639 35.1329L38.0584 37.4383L36.5215 35.9014Z" fill="black"/>
<path d="M32.6797 39.7432L34.9851 37.4378L36.5221 38.9747L34.2167 41.2801L32.6797 39.7432Z" fill="black"/>
<path d="M38.8379 18.2275L32.6901 12.0797L34.2271 10.5428L40.3749 16.6906L38.8379 18.2275Z" fill="black"/>
<path d="M32.6885 16.6904L30.3831 14.385L31.92 12.8481L34.2254 15.1535L32.6885 16.6904Z" fill="black"/>
<path d="M36.5312 20.5342L34.2258 18.2288L35.7627 16.6919L38.0681 18.9973L36.5312 20.5342Z" fill="black"/>
<path d="M37.2988 12.0791L34.9934 9.77369L36.5304 8.23672L38.8358 10.5421L37.2988 12.0791Z" fill="black"/>
<path d="M41.1436 15.9229L38.8381 13.6174L40.3751 12.0805L42.6805 14.3859L41.1436 15.9229Z" fill="black"/>
<path d="M8.8623 35.8965L15.0101 42.0443L13.4731 43.5812L7.32534 37.4335L8.8623 35.8965Z" fill="black"/>
<path d="M15.0098 37.4326L17.3152 39.738L15.7783 41.2749L13.4729 38.9695L15.0098 37.4326Z" fill="black"/>
<path d="M11.168 33.5908L13.4734 35.8962L11.9364 37.4332L9.631 35.1278L11.168 33.5908Z" fill="black"/>
<path d="M13.4736 31.2852L19.6214 37.4329L18.0845 38.9699L11.9367 32.8221L13.4736 31.2852Z" fill="black"/>
<path d="M15.0098 9.76855L8.86197 15.9163L7.32501 14.3794L13.4728 8.23159L15.0098 9.76855Z" fill="black"/>
<path d="M17.3154 12.0742L11.1676 18.222L9.63067 16.685L15.7785 10.5373L17.3154 12.0742Z" fill="black"/>
<path d="M19.623 14.3809L13.4753 20.5287L11.9384 18.9918L18.0861 12.844L19.623 14.3809Z" fill="black"/>
</g>
<defs>
<clipPath id="clip0_175_247">
<rect width="50" height="50" fill="white" transform="translate(0 0.90918)"/>
</clipPath>
</defs>
</svg>
